<?xml version="1.0" standalone="no"?>
<!DOCTYPE svg PUBLIC "-//W3C//DTD SVG 20010904//EN"
 "http://www.w3.org/TR/2001/REC-SVG-20010904/DTD/svg10.dtd">
<svg version="1.0" xmlns="http://www.w3.org/2000/svg"
 width="150.000000pt" height="100.000000pt" viewBox="0 0 150.000000 100.000000"
 preserveAspectRatio="xMidYMid meet">

<g transform="translate(0.000000,100.000000) scale(0.100000,-0.100000)"
fill="#e8335d" stroke="none">
<path d="M274 990 c-60 -12 -133 -53 -176 -97 -41 -42 -83 -127 -91 -186 l-6
-38 101 3 102 3 7 29 c26 97 162 123 224 42 41 -54 35 -110 -18 -182 -57 -77
-175 -187 -309 -287 l-108 -81 0 -88 0 -88 470 0 470 0 0 30 c0 33 11 38 31
14 47 -57 170 -72 273 -34 74 28 157 104 193 178 25 51 28 68 28 157 0 84 -4
107 -24 147 -57 117 -175 198 -297 206 -74 5 -124 -10 -170 -50 l-34 -30 0
176 0 176 -100 0 -100 0 0 -385 0 -385 -180 0 c-99 0 -180 3 -180 8 0 4 36 43
81 87 94 93 159 180 184 247 27 72 18 187 -20 256 -68 126 -218 199 -351 172z
m924 -487 c46 -33 74 -100 68 -158 -13 -120 -142 -186 -237 -121 -97 66 -91
225 10 285 44 27 119 24 159 -6z"/>
</g>
</svg>
