<svg xmlns="http://www.w3.org/2000/svg" width="19.2" height="24" viewBox="0 0 19.2 24">
  <path id="cart" d="M8.8,18.8h9.6a1.2,1.2,0,1,1,0,2.4H7.6A1.2,1.2,0,0,1,6.4,20V4.4H5.2A1.2,1.2,0,1,1,5.2,2H7.6A1.2,1.2,0,0,1,8.8,3.2V5.6H20.712A2.445,2.445,0,0,1,23.2,8a2.312,2.312,0,0,1-.06.521l-1.381,6A2.469,2.469,0,0,1,19.33,16.4H8.8ZM8.2,26A1.8,1.8,0,1,1,10,24.2,1.8,1.8,0,0,1,8.2,26ZM19,26a1.8,1.8,0,1,1,1.8-1.8A1.8,1.8,0,0,1,19,26ZM8.8,8v6H19.4l1.4-6Z" transform="translate(-4 -2)" fill="#ffccd8" fill-rule="evenodd"/>
</svg>
