<svg xmlns="http://www.w3.org/2000/svg" width="140.361" height="32" viewBox="0 0 140.361 32">
  <g id="logotipo" transform="translate(0 0)">
    <g id="Grupo_807" data-name="Grupo 807">
      <path id="Caminho_749" data-name="Caminho 749" d="M6.28-80.514V-86.42q1.234-.771,3.085-2.149t3.89-3.1q2.039-1.719,3.813-3.493a26.085,26.085,0,0,0,2.9-3.372,5.042,5.042,0,0,0,1.124-2.7,3.99,3.99,0,0,0-.551-2.061,4.182,4.182,0,0,0-1.466-1.488,3.874,3.874,0,0,0-2.039-.551,3.932,3.932,0,0,0-2.05.551,4.243,4.243,0,0,0-1.488,1.488,3.93,3.93,0,0,0-.562,2.061H6.324A10.3,10.3,0,0,1,7.8-106.7a10.929,10.929,0,0,1,3.912-3.835,10.432,10.432,0,0,1,5.322-1.41,10.332,10.332,0,0,1,5.355,1.433,10.842,10.842,0,0,1,3.868,3.868,10.411,10.411,0,0,1,1.444,5.41,9.8,9.8,0,0,1-.4,2.81A11.761,11.761,0,0,1,26.148-95.8a19.886,19.886,0,0,1-1.884,2.634q-1.124,1.344-2.59,2.832t-3.229,3.207h11.5v6.612ZM42.071-103.17a11.3,11.3,0,0,1,5.862,1.565,11.821,11.821,0,0,1,4.209,4.2,11.2,11.2,0,0,1,1.565,5.829,11.381,11.381,0,0,1-.9,4.518,11.694,11.694,0,0,1-2.5,3.713,11.729,11.729,0,0,1-3.7,2.5,11.357,11.357,0,0,1-4.529.9,6.483,6.483,0,0,1-3.129-.749,9,9,0,0,1-2.424-1.9v2.072H29.905v-31.373h6.612v11.362a8.626,8.626,0,0,1,2.424-1.906A6.561,6.561,0,0,1,42.071-103.17Zm-.088,16.837a4.591,4.591,0,0,0,2.49-.705,5.147,5.147,0,0,0,1.785-1.9,5.353,5.353,0,0,0,.661-2.645,5.309,5.309,0,0,0-.661-2.623,5.237,5.237,0,0,0-1.785-1.906,4.539,4.539,0,0,0-2.49-.716,4.448,4.448,0,0,0-2.457.716A5.27,5.27,0,0,0,37.751-94.2a5.309,5.309,0,0,0-.661,2.623,5.353,5.353,0,0,0,.661,2.645,5.179,5.179,0,0,0,1.774,1.9A4.5,4.5,0,0,0,41.982-86.332Z" transform="translate(-6.28 111.941)" fill="#e8335d"/>
      <path id="Caminho_750" data-name="Caminho 750" d="M-54.248-6.945a9.827,9.827,0,0,1-3.262-.627,7.894,7.894,0,0,1-2.624-1.589,4.735,4.735,0,0,1-1.412-2.279l2.677-1.087a3.064,3.064,0,0,0,1.035,1.5A6.288,6.288,0,0,0-55.91-9.946a6.581,6.581,0,0,0,2.269.408,7.22,7.22,0,0,0,2.447-.418,5.38,5.38,0,0,0,1.976-1.2,3.118,3.118,0,0,0,.952-1.851,2.005,2.005,0,0,0-.491-1.809,4.6,4.6,0,0,0-1.757-1.046q-1.1-.387-2.269-.742A25.385,25.385,0,0,1-56.5-17.945a5.75,5.75,0,0,1-2.374-1.872,4.011,4.011,0,0,1-.544-2.938,6.054,6.054,0,0,1,1.537-3.294A8.536,8.536,0,0,1-54.75-28.2a10.049,10.049,0,0,1,3.848-.763,8.864,8.864,0,0,1,4.486,1.108,5.776,5.776,0,0,1,2.645,2.949l-2.572,1.4a3.067,3.067,0,0,0-.983-1.485,5.459,5.459,0,0,0-1.715-.983,6.35,6.35,0,0,0-2.049-.376,7.488,7.488,0,0,0-2.541.387,5.264,5.264,0,0,0-2.018,1.2,3.305,3.305,0,0,0-.983,1.945,1.988,1.988,0,0,0,.45,1.746,4.26,4.26,0,0,0,1.736.962q1.14.366,2.541.847a26.245,26.245,0,0,1,3.377,1.38,6.8,6.8,0,0,1,2.436,1.924,3.672,3.672,0,0,1,.606,2.907,5.894,5.894,0,0,1-1.6,3.283,8.778,8.778,0,0,1-3.231,2.143A9.871,9.871,0,0,1-54.248-6.945Zm24.969-18.382h-5L-36.828-7.342h-2.928L-37.2-25.327H-40.99l.418-2.928h3.785l.9-6.566h2.928l-.9,6.566h5ZM-19.555-6.8a8.709,8.709,0,0,1-5.05-1.485,8.937,8.937,0,0,1-3.22-3.984,10.34,10.34,0,0,1-.638-5.531,12.288,12.288,0,0,1,1.412-4.3,13.672,13.672,0,0,1,2.75-3.513,12.8,12.8,0,0,1,3.67-2.374,10.567,10.567,0,0,1,4.172-.857,8.709,8.709,0,0,1,5.05,1.485,9,9,0,0,1,3.231,3.994A10.246,10.246,0,0,1-7.551-17.8a12.174,12.174,0,0,1-1.412,4.266,13.74,13.74,0,0,1-2.75,3.5,12.843,12.843,0,0,1-3.66,2.374A10.543,10.543,0,0,1-19.555-6.8Zm.4-2.928a7.62,7.62,0,0,0,3.994-1.119A9.931,9.931,0,0,0-12.047-13.8,9.418,9.418,0,0,0-10.479-17.8a7.679,7.679,0,0,0-.439-4.046,6.62,6.62,0,0,0-2.3-2.959,6.119,6.119,0,0,0-3.66-1.108,7.62,7.62,0,0,0-3.994,1.119,9.824,9.824,0,0,0-3.105,2.959A9.519,9.519,0,0,0-25.536-17.8a7.7,7.7,0,0,0,.45,4.088A6.479,6.479,0,0,0-22.765-10.8,6.187,6.187,0,0,0-19.157-9.726ZM8.76-25.411A4.281,4.281,0,0,0,7.7-25.829a5.034,5.034,0,0,0-1.244-.146,6.27,6.27,0,0,0-3.409,1A8.434,8.434,0,0,0,.4-22.263,9.552,9.552,0,0,0-.964-18.489L-2.532-7.342H-5.481l2.949-20.912H.4l-.5,3.492a11.269,11.269,0,0,1,3.356-2.98,7.975,7.975,0,0,1,4-1.077,10.652,10.652,0,0,1,1.276.073,5.145,5.145,0,0,1,1.129.261ZM17.439-6.8a8.709,8.709,0,0,1-5.05-1.485,8.937,8.937,0,0,1-3.22-3.984A10.34,10.34,0,0,1,8.53-17.8a12.288,12.288,0,0,1,1.412-4.3,13.672,13.672,0,0,1,2.75-3.513,12.8,12.8,0,0,1,3.67-2.374,10.567,10.567,0,0,1,4.172-.857,9.048,9.048,0,0,1,4.141.92,8.167,8.167,0,0,1,3,2.572,9.512,9.512,0,0,1,1.589,3.869,13.077,13.077,0,0,1-.073,4.789H11.458a7.4,7.4,0,0,0,.753,3.555,6.132,6.132,0,0,0,2.248,2.478,6.367,6.367,0,0,0,3.377.931,7.656,7.656,0,0,0,3.942-1.087A9.6,9.6,0,0,0,24.9-13.8l2.865.69a13.523,13.523,0,0,1-4.423,4.548A10.8,10.8,0,0,1,17.439-6.8ZM11.73-19.053H26.577a6.877,6.877,0,0,0-.68-3.566,6.466,6.466,0,0,0-2.3-2.593,6.168,6.168,0,0,0-3.44-.972,7.6,7.6,0,0,0-3.691.951,9.425,9.425,0,0,0-2.99,2.572A9.807,9.807,0,0,0,11.73-19.053Z" transform="translate(110.91 38.553)" fill="#e8335d"/>
    </g>
  </g>
</svg>
